# xmcd
#
# Track frame offsets:
#	150
#	25926
#	41518
#	75121
#	92120
#	115338
#	148120
#	171674
#	212551
#	275163
#
# Disc length: 4114 seconds
# Revision: 1
# Processed by: cddbd v1.5.2PL0 Copyright (c) Steve Scherf et al.
# Submitted via: dBpowerAMP V12.0
#
DISCID=8b10100a
DTITLE=Bob Dylan - Tempest
DYEAR=2012
DGENRE=Pop/Rock
TTITLE0=Duquesne Whistle
TTITLE1=Soon After Midnight
TTITLE2=Narrow Way
TTITLE3=Long and Wasted Years
TTITLE4=Pay in Blood
TTITLE5=Scarlet Town
TTITLE6=Early Roman Kings
TTITLE7=Tin Angel
TTITLE8=Tempest
TTITLE9=Roll On John
EXTD=
EXTT0=
EXTT1=
EXTT2=
EXTT3=
EXTT4=
EXTT5=
EXTT6=
EXTT7=
EXTT8=
EXTT9=
PLAYORDER=
